<svg xmlns="http://www.w3.org/2000/svg" viewBox="0 0 760 500" role="img" aria-labelledby="title desc">
<title id="title">Orientador de soluciones</title><desc id="desc">Brújula visual que conecta preguntas generales con rutas jurídicas.</desc>
<defs><linearGradient id="bg" x1="0" y1="0" x2="1" y2="1"><stop stop-color="#F7F5F1"/><stop offset="1" stop-color="#EEF4FF"/></linearGradient><linearGradient id="navy" x1="0" y1="0" x2="1" y2="1"><stop stop-color="#0D1324"/><stop offset="1" stop-color="#1B315B"/></linearGradient><filter id="shadow" x="-20%" y="-20%" width="140%" height="140%"><feDropShadow dx="0" dy="14" stdDeviation="18" flood-color="#0D1324" flood-opacity=".14"/></filter></defs>
<rect width="760" height="500" rx="42" fill="url(#bg)"/><circle cx="650" cy="70" r="90" fill="#2563EB" opacity=".08"/><circle cx="92" cy="430" r="120" fill="#C9A96E" opacity=".10"/>
<g filter="url(#shadow)"><rect x="92" y="76" width="576" height="350" rx="30" fill="#fff" stroke="#DCE3ED"/><circle cx="286" cy="250" r="116" fill="#F3F6FC" stroke="#C9A96E" stroke-width="5"/><circle cx="286" cy="250" r="78" fill="url(#navy)"/><path d="M286 164l25 61 61 25-61 25-25 61-25-61-61-25 61-25z" fill="#C9A96E"/><circle cx="286" cy="250" r="14" fill="#fff"/><g fill="#0D1324" font-family="Arial,sans-serif" font-weight="700"><text x="274" y="126" font-size="18">N</text><text x="274" y="390" font-size="18">S</text><text x="407" y="256" font-size="18">E</text><text x="148" y="256" font-size="18">O</text></g><g transform="translate(455 130)"><rect width="155" height="52" rx="15" fill="#EFF4FF" stroke="#B8CBF0"/><circle cx="28" cy="26" r="12" fill="#2563EB"/><path d="M23 26l4 4 8-9" fill="none" stroke="#fff" stroke-width="3"/><text x="49" y="32" font-family="Arial" font-size="14" font-weight="700" fill="#0D1324">Tu situación</text><rect y="78" width="155" height="52" rx="15" fill="#FFF8E9" stroke="#DEC895"/><circle cx="28" cy="104" r="12" fill="#C9A96E"/><path d="M22 104h12M28 98v12" stroke="#0D1324" stroke-width="3"/><text x="49" y="110" font-family="Arial" font-size="14" font-weight="700" fill="#0D1324">Tus objetivos</text><rect y="156" width="155" height="52" rx="15" fill="#F1F7F4" stroke="#BBD8C8"/><circle cx="28" cy="182" r="12" fill="#2F855A"/><path d="M22 182l4 4 8-9" fill="none" stroke="#fff" stroke-width="3"/><text x="49" y="188" font-family="Arial" font-size="14" font-weight="700" fill="#0D1324">Una ruta</text></g></g>
</svg>