<svg xmlns="http://www.w3.org/2000/svg" viewBox="0 0 640 420" role="img" aria-labelledby="t d"><title id="t">Compuertas de preproducción</title><desc id="d">Panel tecnológico con controles, escudo y una barrera que mantiene producción bloqueada.</desc><rect width="640" height="420" rx="32" fill="#F7F5F1"/><rect x="52" y="48" width="536" height="324" rx="28" fill="#0D1324"/><rect x="88" y="86" width="288" height="238" rx="18" fill="#17213A"/><g fill="none" stroke="#C9A96E" stroke-width="8" stroke-linecap="round"><path d="M126 134h202"/><path d="M126 190h202"/><path d="M126 246h148"/></g><g fill="#2563EB"><circle cx="112" cy="134" r="12"/><circle cx="112" cy="190" r="12"/><circle cx="112" cy="246" r="12"/></g><path d="M456 100l76 28v62c0 62-30 104-76 128-46-24-76-66-76-128v-62z" fill="#2563EB"/><path d="M424 198l22 22 46-54" fill="none" stroke="#F7F5F1" stroke-width="14" stroke-linecap="round" stroke-linejoin="round"/><rect x="388" y="322" width="136" height="28" rx="14" fill="#C9A96E"/><circle cx="548" cy="336" r="24" fill="#F7F5F1"/><path d="M538 336h20" stroke="#0D1324" stroke-width="8" stroke-linecap="round"/></svg>
