<svg xmlns="http://www.w3.org/2000/svg" viewBox="0 0 640 420" role="img" aria-labelledby="title desc"><title id="title">Centro documental</title><desc id="desc">Documentos organizados por expediente, versión y estado</desc><defs><linearGradient id="bg" x1="0" y1="0" x2="1" y2="1"><stop stop-color="#FFFFFF"/><stop offset="1" stop-color="#F7F5F1"/></linearGradient><linearGradient id="nav" x1="0" y1="0" x2="1" y2="1"><stop stop-color="#0D1324"/><stop offset="1" stop-color="#1B3A62"/></linearGradient><filter id="s" x="-30%" y="-30%" width="160%" height="160%"><feDropShadow dx="0" dy="12" stdDeviation="16" flood-color="#0D1324" flood-opacity=".13"/></filter></defs><rect width="640" height="420" rx="32" fill="url(#bg)"/><circle cx="555" cy="72" r="88" fill="#C9A96E" opacity=".14"/><circle cx="80" cy="350" r="68" fill="#2563EB" opacity=".07"/><g filter="url(#s)"><rect x="100" y="70" width="440" height="280" rx="26" fill="#FFFFFF"/></g><rect x="100" y="70" width="440" height="58" rx="26" fill="url(#nav)"/><rect x="132" y="91" width="144" height="15" rx="7" fill="white"/><g transform="translate(130 156)"><rect width="380" height="46" rx="13" fill="#F4F7FB"/><rect x="18" y="12" width="22" height="22" rx="6" fill="#2563EB"/><rect x="56" y="12" width="132" height="9" rx="4" fill="#0D1324"/><rect x="56" y="27" width="92" height="7" rx="3" fill="#A8AEB8"/><rect x="302" y="10" width="58" height="26" rx="10" fill="#E8F6F1"/></g><g transform="translate(130 220)"><rect width="380" height="46" rx="13" fill="#FBF8F1"/><rect x="18" y="12" width="22" height="22" rx="6" fill="#C9A96E"/><rect x="56" y="12" width="145" height="9" rx="4" fill="#0D1324"/><rect x="56" y="27" width="112" height="7" rx="3" fill="#A8AEB8"/><rect x="302" y="10" width="58" height="26" rx="10" fill="#FFF0EF"/></g><g transform="translate(130 284)"><rect width="380" height="46" rx="13" fill="#F4F7FB"/><rect x="18" y="12" width="22" height="22" rx="6" fill="#2563EB"/><rect x="56" y="12" width="122" height="9" rx="4" fill="#0D1324"/><rect x="56" y="27" width="84" height="7" rx="3" fill="#A8AEB8"/></g></svg>